<svg xmlns="http://www.w3.org/2000/svg" viewBox="0 0 24 24">
  <defs>
    <linearGradient id="gradient" x1="0%" y1="0%" x2="100%" y2="100%">
      <stop offset="0%" style="stop-color:#3b82f6;stop-opacity:1" />
      <stop offset="100%" style="stop-color:#1d4ed8;stop-opacity:1" />
    </linearGradient>
  </defs>
  <rect width="24" height="24" rx="4" fill="url(#gradient)"/>
  <path d="M12 2C9.5 2 7.5 3.5 7.5 5.5C7.5 6.5 8 7.5 9 8.5C8 9 7 9.5 6.5 10.5C6 11.5 6 12.5 6.5 13.5C7 14.5 8 15 9 15.5C8.5 16 8 16.5 8 17.5C8 19 9 20 10.5 20.5C11 20.8 11.5 21 12 21C12.5 21 13 20.8 13.5 20.5C15 20 16 19 16 17.5C16 16.5 15.5 16 15 15.5C16 15 17 14.5 17.5 13.5C18 12.5 18 11.5 17.5 10.5C17 9.5 16 9 15 8.5C16 7.5 16.5 6.5 16.5 5.5C16.5 3.5 14.5 2 12 2ZM10 4.5C10 4.2 10.2 4 10.5 4H13.5C13.8 4 14 4.2 14 4.5C14 5.5 13.5 6 12.5 6.5C12.3 6.6 12.2 6.6 12 6.6C11.8 6.6 11.7 6.6 11.5 6.5C10.5 6 10 5.5 10 4.5Z" fill="white"/>
</svg>
